# xmcd CD database file
#
# Track frame offsets:
#	150
#	21452
#	43178
#	64478
#
# Disc length: 1147 seconds
#
# Revision: 13
# Processed by: cddbd v1.5.2PL0 Copyright (c) Steve Scherf et al.
# Submitted via: CDex 1.70beta2
#
DISCID=39047904
DTITLE=タイナカサチ - Lipstick／一番星
DYEAR=2007
DGENRE=J-POP(J)
TTITLE0=Lipstick
TTITLE1=一番星
TTITLE2=Lipstick -instrumental-
TTITLE3=一番星 -instrumental-
EXTD=YEAR: 2007
EXTT0=
EXTT1=
EXTT2=
EXTT3=
PLAYORDER=
